<svg width="1920" height="1080" viewBox="0 0 1920 1080" fill="none" xmlns="http://www.w3.org/2000/svg">
<g clip-path="url(#clip0)">
<rect width="1920" height="1080" fill="#F3F3F3"/>
<path d="M1923.5 838L1845 838C1841.69 838 1839 840.686 1839 844L1839 1002.5C1839 1005.81 1836.31 1008.5 1833 1008.5L1780.49 1008.5C1778.89 1008.5 1777.37 1009.13 1776.24 1010.26L1637 1149.5" stroke="url(#paint0_linear)" stroke-opacity="0.1" stroke-width="2"/>
<path d="M1949 535L1871 535C1867.69 535 1865 537.686 1865 541L1865 837" stroke="url(#paint1_linear)" stroke-opacity="0.1" stroke-width="2"/>
<path d="M40 0L40 78C40 81.3137 42.6863 84 46 84L261 84C264.314 84 267 81.3137 267 78V0" stroke="url(#paint2_linear)" stroke-opacity="0.1" stroke-width="2"/>
<path d="M1864 573L1732.5 573C1729.19 573 1726.5 570.314 1726.5 567V407.5L1726.5 334.5" stroke="url(#paint3_linear)" stroke-opacity="0.1" stroke-width="2"/>
<path d="M888.85 639.908L800.164 550.892L888.85 462.206L912.345 485.371L846.823 550.892L912.345 616.413L888.85 639.908ZM1031.31 639.908L1008.15 616.413L1073.67 550.892L1008.15 485.371L1031.31 462.206L1120.33 550.892L1031.31 639.908Z" fill="#434343" fill-opacity="0.85"/>
<path d="M196 85L196 219.61C196 221.436 195.168 223.163 193.74 224.302L91.6412 305.692C90.5786 306.539 89.26 307 87.9011 307L-26.5 307" stroke="url(#paint4_linear)" stroke-opacity="0.1" stroke-width="2"/>
<path d="M1280 1094.5L1280 959.89C1280 958.064 1280.83 956.337 1282.26 955.198L1383.74 874.302C1385.17 873.163 1386 871.436 1386 869.61V761" stroke="url(#paint5_linear)" stroke-opacity="0.1" stroke-width="2"/>
<path d="M1271.5 1007L1055.5 1007C1052.19 1007 1049.5 1004.31 1049.5 1001V907C1049.5 903.686 1046.81 901 1043.5 901H938" stroke="url(#paint6_linear)" stroke-opacity="0.1" stroke-width="2"/>
<path d="M1045.5 1007L826.186 1007C824.477 1007 822.849 1006.27 821.711 1005L775.289 953.004C774.151 951.729 772.523 951 770.814 951H637.5" stroke="url(#paint7_linear)" stroke-opacity="0.1" stroke-width="2"/>
<path d="M240 935.5L240 800.89C240 799.064 240.832 797.337 242.26 796.198L343.74 715.302C345.168 714.163 346 712.436 346 710.61V537.5" stroke="url(#paint8_linear)" stroke-opacity="0.1" stroke-width="2"/>
<path d="M146.5 660.5V823.5C146.5 826.814 149.186 829.5 152.5 829.5H225" stroke="url(#paint9_linear)" stroke-opacity="0.1" stroke-width="2"/>
<path d="M85 1080L85 948.5C85 945.186 87.6863 942.5 91 942.5H306C309.314 942.5 312 939.814 312 936.5V858" stroke="url(#paint10_linear)" stroke-opacity="0.1" stroke-width="2"/>
<rect x="225" y="821" width="30" height="30" rx="1" fill="#DEDEDE"/>
<rect x="223.5" y="819.5" width="33" height="33" rx="2.5" stroke="white" stroke-opacity="0.6" stroke-width="3"/>
<rect x="76" y="1029" width="19" height="19" rx="1" fill="#DEDEDE"/>
<rect x="74.5" y="1027.5" width="22" height="22" rx="2.5" stroke="white" stroke-opacity="0.6" stroke-width="3"/>
<rect x="1849" y="558" width="30" height="30" rx="1" fill="#DEDEDE"/>
<rect x="1847.5" y="556.5" width="33" height="33" rx="2.5" stroke="white" stroke-opacity="0.6" stroke-width="3"/>
<rect x="1034" y="992" width="30" height="30" rx="1" fill="#DEDEDE"/>
<rect x="1032.5" y="990.5" width="33" height="33" rx="2.5" stroke="white" stroke-opacity="0.6" stroke-width="3"/>
<path d="M1553 0L1553 131.5C1553 134.814 1550.31 137.5 1547 137.5L1430.16 137.5C1428.76 137.5 1427.41 137.988 1426.33 138.88L1326 222" stroke="url(#paint11_linear)" stroke-opacity="0.1" stroke-width="2"/>
<path d="M1568 82L1756.5 82C1759.81 82 1762.5 84.6863 1762.5 88L1762.5 169.5C1762.5 172.814 1759.81 175.5 1756.5 175.5L1643.5 175.5C1640.19 175.5 1637.5 178.186 1637.5 181.5V408" stroke="url(#paint12_linear)" stroke-opacity="0.1" stroke-width="2"/>
<path d="M546 221.5L646.335 138.38C647.411 137.488 648.765 137 650.162 137L773 137" stroke="url(#paint13_linear)" stroke-opacity="0.1" stroke-width="2"/>
<path d="M1002 0L1002 131.5C1002 134.814 999.314 137.5 996 137.5L781 137.5C777.686 137.5 775 140.186 775 143.5V352" stroke="url(#paint14_linear)" stroke-opacity="0.1" stroke-width="2"/>
<rect x="1568" y="97" width="39" height="39" rx="1" transform="rotate(-180 1568 97)" fill="#DEDEDE"/>
<rect x="1569.5" y="98.5" width="42" height="42" rx="2.5" transform="rotate(-180 1569.5 98.5)" stroke="white" stroke-opacity="0.6" stroke-width="3"/>
<rect x="1775" y="182" width="22" height="22" rx="1" transform="rotate(-180 1775 182)" fill="#DEDEDE"/>
<rect x="1776.5" y="183.5" width="25" height="25" rx="2.5" transform="rotate(-180 1776.5 183.5)" stroke="white" stroke-opacity="0.6" stroke-width="3"/>
<rect x="1306" y="1028" width="41" height="41" rx="1" transform="rotate(-180 1306 1028)" fill="#DEDEDE"/>
<rect x="1307.5" y="1029.5" width="44" height="44" rx="2.5" transform="rotate(-180 1307.5 1029.5)" stroke="white" stroke-opacity="0.6" stroke-width="3"/>
<rect x="246" y="957" width="41" height="41" rx="1" transform="rotate(-180 246 957)" fill="#DEDEDE"/>
<rect x="247.5" y="958.5" width="44" height="44" rx="2.5" transform="rotate(-180 247.5 958.5)" stroke="white" stroke-opacity="0.6" stroke-width="3"/>
<rect x="787" y="154" width="30" height="30" rx="1" transform="rotate(-180 787 154)" fill="#DEDEDE"/>
<rect x="788.5" y="155.5" width="33" height="33" rx="2.5" transform="rotate(-180 788.5 155.5)" stroke="white" stroke-opacity="0.6" stroke-width="3"/>
<rect x="178" y="67" width="36" height="36" rx="1" fill="#DEDEDE"/>
<rect x="176.5" y="65.5" width="39" height="39" rx="2.5" stroke="white" stroke-opacity="0.6" stroke-width="3"/>
<rect x="1829" y="816" width="44" height="44" rx="1" fill="#DEDEDE"/>
<rect x="1827.5" y="814.5" width="47" height="47" rx="2.5" stroke="white" stroke-opacity="0.6" stroke-width="3"/>
</g>
<defs>
<linearGradient id="paint0_linear" x1="1912" y1="850.5" x2="1814" y2="1126.5" gradientUnits="userSpaceOnUse">
<stop/>
<stop offset="1" stop-opacity="0"/>
</linearGradient>
<linearGradient id="paint1_linear" x1="1882.5" y1="612.5" x2="1941.5" y2="535" gradientUnits="userSpaceOnUse">
<stop/>
<stop offset="1" stop-opacity="0"/>
</linearGradient>
<linearGradient id="paint2_linear" x1="232" y1="84" x2="270" y2="13.5" gradientUnits="userSpaceOnUse">
<stop/>
<stop offset="1" stop-opacity="0"/>
</linearGradient>
<linearGradient id="paint3_linear" x1="1739.5" y1="522" x2="1742" y2="339" gradientUnits="userSpaceOnUse">
<stop/>
<stop offset="1" stop-opacity="0"/>
</linearGradient>
<linearGradient id="paint4_linear" x1="139" y1="196" x2="13.5" y2="250.5" gradientUnits="userSpaceOnUse">
<stop/>
<stop offset="1" stop-opacity="0"/>
</linearGradient>
<linearGradient id="paint5_linear" x1="1337" y1="983.5" x2="1462.5" y2="929" gradientUnits="userSpaceOnUse">
<stop/>
<stop offset="1" stop-opacity="0"/>
</linearGradient>
<linearGradient id="paint6_linear" x1="1160.5" y1="950" x2="1106" y2="824.5" gradientUnits="userSpaceOnUse">
<stop/>
<stop offset="1" stop-opacity="0"/>
</linearGradient>
<linearGradient id="paint7_linear" x1="934.5" y1="950" x2="880" y2="824.5" gradientUnits="userSpaceOnUse">
<stop/>
<stop offset="1" stop-opacity="0"/>
</linearGradient>
<linearGradient id="paint8_linear" x1="364.5" y1="716.5" x2="371" y2="550" gradientUnits="userSpaceOnUse">
<stop/>
<stop offset="1" stop-opacity="0"/>
</linearGradient>
<linearGradient id="paint9_linear" x1="176.5" y1="790" x2="141.5" y2="621" gradientUnits="userSpaceOnUse">
<stop/>
<stop offset="1" stop-opacity="0"/>
</linearGradient>
<linearGradient id="paint10_linear" x1="312" y1="950" x2="318" y2="858" gradientUnits="userSpaceOnUse">
<stop/>
<stop offset="1" stop-opacity="0"/>
</linearGradient>
<linearGradient id="paint11_linear" x1="1326" y1="130" x2="1320" y2="222" gradientUnits="userSpaceOnUse">
<stop/>
<stop offset="1" stop-opacity="0"/>
</linearGradient>
<linearGradient id="paint12_linear" x1="1575.5" y1="258" x2="1580" y2="414.5" gradientUnits="userSpaceOnUse">
<stop/>
<stop offset="1" stop-opacity="0"/>
</linearGradient>
<linearGradient id="paint13_linear" x1="546" y1="129.5" x2="540" y2="221.5" gradientUnits="userSpaceOnUse">
<stop/>
<stop offset="1" stop-opacity="0"/>
</linearGradient>
<linearGradient id="paint14_linear" x1="809" y1="166.5" x2="775" y2="417.5" gradientUnits="userSpaceOnUse">
<stop/>
<stop offset="1" stop-opacity="0"/>
</linearGradient>
<clipPath id="clip0">
<rect width="1920" height="1080" fill="white"/>
</clipPath>
</defs>
</svg>
